#Comment line ignore any data following # character 
#Hierarchical Translation and Rotation (.htr) file 
[Header]	
#Header keywords are followed by a single value 
FileType HTR		#Single word string
DataType HTRS		#Translation followed by rotation and scale data
FileVersion 1		#integer
NumSegments 84		#integer
NumFrames 2		#integer
DataFrameRate 30		#integer, data frame rate in this file
EulerRotationOrder ZYX
CalibrationUnits mm
RotationUnits Degrees
GlobalAxisofGravity Y
BoneLengthAxis Y
ScaleFactor 1.00
[SegmentNames&Hierarchy]
#CHILD	PARENT
MASTER GLOBAL
root MASTER
chest root
L_mid_tent01 root
R_mid_tent01 root
spine01 root
Bip01_Neck chest
L_humerus chest
R_humerus chest
weapon_bone chest
Bip01_Head Bip01_Neck
eye_left_bone Bip01_Head
eye_right_bone Bip01_Head
L_forearm L_humerus
L_front_hand L_forearm
L_weapon_bone L_forearm
L_front_hand01_01 L_front_hand
L_front_hand02_01 L_front_hand
L_front_hand03_01 L_front_hand
L_front_hand01_02 L_front_hand01_01
L_front_hand02_02 L_front_hand02_01
L_front_hand03_02 L_front_hand03_01
R_forearm R_humerus
R_front_hand R_forearm
R_weapon_bone R_forearm
R_front_hand01_01 R_front_hand
R_front_hand02_01 R_front_hand
R_front_hand03_01 R_front_hand
R_front_hand01_02 R_front_hand01_01
R_front_hand02_02 R_front_hand02_01
R_front_hand03_02 R_front_hand03_01
null_rope01_connect L_mid_tent01
Rope1_Seg01 null_rope01_connect
Rope1_Seg02 Rope1_Seg01
Rope1_Seg03 Rope1_Seg02
Rope1_Seg04 Rope1_Seg03
Rope1_Seg05 Rope1_Seg04
Rope1_Seg06 Rope1_Seg05
Rope1_Seg07 Rope1_Seg06
Rope1_Seg09 Rope1_Seg07
L_mid_hand01 Rope1_Seg09
L_mid_hand02 Rope1_Seg09
L_mid_hand03 Rope1_Seg09
null_rope02_connect R_mid_tent01
Rope2_Seg01 null_rope02_connect
Rope2_Seg02 Rope2_Seg01
Rope2_Seg03 Rope2_Seg02
Rope2_Seg04 Rope2_Seg03
Rope2_Seg05 Rope2_Seg04
Rope2_Seg06 Rope2_Seg05
Rope2_Seg07 Rope2_Seg06
Rope2_Seg09 Rope2_Seg07
R_mid_hand01 Rope2_Seg09
R_mid_hand02 Rope2_Seg09
R_mid_hand03 Rope2_Seg09
spine02 spine01
spine03 spine02
pelvis spine03
null_rope03_connect pelvis
null_rope04_connect pelvis
Rope3_Seg01 null_rope03_connect
Rope3_Seg02 Rope3_Seg01
Rope3_Seg03 Rope3_Seg02
Rope3_Seg04 Rope3_Seg03
Rope3_Seg05 Rope3_Seg04
Rope3_Seg06 Rope3_Seg05
Rope3_Seg07 Rope3_Seg06
Rope3_Seg08 Rope3_Seg07
Rope3_Seg09 Rope3_Seg08
R_rear_hand01 Rope3_Seg09
R_rear_hand02 Rope3_Seg09
R_rear_hand03 Rope3_Seg09
Rope4_Seg01 null_rope04_connect
Rope4_Seg02 Rope4_Seg01
Rope4_Seg03 Rope4_Seg02
Rope4_Seg04 Rope4_Seg03
Rope4_Seg05 Rope4_Seg04
Rope4_Seg06 Rope4_Seg05
Rope4_Seg07 Rope4_Seg06
Rope4_Seg08 Rope4_Seg07
Rope4_Seg09 Rope4_Seg08
L_rear_hand01 Rope4_Seg09
L_rear_hand02 Rope4_Seg09
L_rear_hand03 Rope4_Seg09
[BasePosition]
#SegmentName Tx, Ty, Tz, Rx, Ry, Rz, BoneLength
MASTER 0.000000 0.000000 0.000000 -90.000000 0.000000 0.000000 10.000000 
root 0.000000 0.000000 0.000000 0.000000 0.000000 0.000000 10.000000 
chest 0.000000 0.000000 0.000000 0.000000 0.000000 0.000000 10.000000 
L_mid_tent01 0.000000 0.000000 0.000000 0.000000 0.000000 0.000000 10.000000 
R_mid_tent01 0.000000 0.000000 0.000000 0.000000 0.000000 0.000000 10.000000 
spine01 0.000000 0.000000 0.000000 0.000000 0.000000 0.000000 10.000000 
Bip01_Neck 0.000000 0.000000 0.000000 0.000000 0.000000 0.000000 10.000000 
L_humerus 0.000000 0.000000 0.000000 0.000000 0.000000 0.000000 10.000000 
R_humerus 0.000000 0.000000 0.000000 0.000000 0.000000 0.000000 10.000000 
weapon_bone 0.000000 0.000000 0.000000 0.000000 0.000000 0.000000 10.000000 
Bip01_Head 0.000000 0.000000 0.000000 0.000000 0.000000 0.000000 10.000000 
eye_left_bone 0.000000 0.000000 0.000000 0.000000 0.000000 0.000000 10.000000 
eye_right_bone 0.000000 0.000000 0.000000 0.000000 0.000000 0.000000 10.000000 
L_forearm 0.000000 0.000000 0.000000 0.000000 0.000000 0.000000 10.000000 
L_front_hand 0.000000 0.000000 0.000000 0.000000 0.000000 0.000000 10.000000 
L_weapon_bone 0.000000 0.000000 0.000000 0.000000 0.000000 0.000000 10.000000 
L_front_hand01_01 0.000000 0.000000 0.000000 0.000000 0.000000 0.000000 10.000000 
L_front_hand02_01 0.000000 0.000000 0.000000 0.000000 0.000000 0.000000 10.000000 
L_front_hand03_01 0.000000 0.000000 0.000000 0.000000 0.000000 0.000000 10.000000 
L_front_hand01_02 0.000000 0.000000 0.000000 0.000000 0.000000 0.000000 10.000000 
L_front_hand02_02 0.000000 0.000000 0.000000 0.000000 0.000000 0.000000 10.000000 
L_front_hand03_02 0.000000 0.000000 0.000000 0.000000 0.000000 0.000000 10.000000 
R_forearm 0.000000 0.000000 0.000000 0.000000 0.000000 0.000000 10.000000 
R_front_hand 0.000000 0.000000 0.000000 0.000000 0.000000 0.000000 10.000000 
R_weapon_bone 0.000000 0.000000 0.000000 0.000000 0.000000 0.000000 10.000000 
R_front_hand01_01 0.000000 0.000000 0.000000 0.000000 0.000000 0.000000 10.000000 
R_front_hand02_01 0.000000 0.000000 0.000000 0.000000 0.000000 0.000000 10.000000 
R_front_hand03_01 0.000000 0.000000 0.000000 0.000000 0.000000 0.000000 10.000000 
R_front_hand01_02 0.000000 0.000000 0.000000 0.000000 0.000000 0.000000 10.000000 
R_front_hand02_02 0.000000 0.000000 0.000000 0.000000 0.000000 0.000000 10.000000 
R_front_hand03_02 0.000000 0.000000 0.000000 0.000000 0.000000 0.000000 10.000000 
null_rope01_connect 0.000000 0.000000 0.000000 0.000000 0.000000 0.000000 10.000000 
Rope1_Seg01 0.000000 0.000000 0.000000 0.000000 0.000000 0.000000 10.000000 
Rope1_Seg02 0.000000 0.000000 0.000000 0.000000 0.000000 0.000000 10.000000 
Rope1_Seg03 0.000000 0.000000 0.000000 0.000000 0.000000 0.000000 10.000000 
Rope1_Seg04 0.000000 0.000000 0.000000 0.000000 0.000000 0.000000 10.000000 
Rope1_Seg05 0.000000 0.000000 0.000000 0.000000 0.000000 0.000000 10.000000 
Rope1_Seg06 0.000000 0.000000 0.000000 0.000000 0.000000 0.000000 10.000000 
Rope1_Seg07 0.000000 0.000000 0.000000 0.000000 0.000000 0.000000 10.000000 
Rope1_Seg09 0.000000 0.000000 0.000000 0.000000 0.000000 0.000000 10.000000 
L_mid_hand01 0.000000 0.000000 0.000000 0.000000 0.000000 0.000000 10.000000 
L_mid_hand02 0.000000 0.000000 0.000000 0.000000 0.000000 0.000000 10.000000 
L_mid_hand03 0.000000 0.000000 0.000000 0.000000 0.000000 0.000000 10.000000 
null_rope02_connect 0.000000 0.000000 0.000000 0.000000 0.000000 0.000000 10.000000 
Rope2_Seg01 0.000000 0.000000 0.000000 0.000000 0.000000 0.000000 10.000000 
Rope2_Seg02 0.000000 0.000000 0.000000 0.000000 0.000000 0.000000 10.000000 
Rope2_Seg03 0.000000 0.000000 0.000000 0.000000 0.000000 0.000000 10.000000 
Rope2_Seg04 0.000000 0.000000 0.000000 0.000000 0.000000 0.000000 10.000000 
Rope2_Seg05 0.000000 0.000000 0.000000 0.000000 0.000000 0.000000 10.000000 
Rope2_Seg06 0.000000 0.000000 0.000000 0.000000 0.000000 0.000000 10.000000 
Rope2_Seg07 0.000000 0.000000 0.000000 0.000000 0.000000 0.000000 10.000000 
Rope2_Seg09 0.000000 0.000000 0.000000 0.000000 0.000000 0.000000 10.000000 
R_mid_hand01 0.000000 0.000000 0.000000 0.000000 0.000000 0.000000 10.000000 
R_mid_hand02 0.000000 0.000000 0.000000 0.000000 0.000000 0.000000 10.000000 
R_mid_hand03 0.000000 0.000000 0.000000 0.000000 0.000000 0.000000 10.000000 
spine02 0.000000 0.000000 0.000000 0.000000 0.000000 0.000000 10.000000 
spine03 0.000000 0.000000 0.000000 0.000000 0.000000 0.000000 10.000000 
pelvis 0.000000 0.000000 0.000000 0.000000 0.000000 0.000000 10.000000 
null_rope03_connect 0.000000 0.000000 0.000000 0.000000 0.000000 0.000000 10.000000 
null_rope04_connect 0.000000 0.000000 0.000000 0.000000 0.000000 0.000000 10.000000 
Rope3_Seg01 0.000000 0.000000 0.000000 0.000000 0.000000 0.000000 10.000000 
Rope3_Seg02 0.000000 0.000000 0.000000 0.000000 0.000000 0.000000 10.000000 
Rope3_Seg03 0.000000 0.000000 0.000000 0.000000 0.000000 0.000000 10.000000 
Rope3_Seg04 0.000000 0.000000 0.000000 0.000000 0.000000 0.000000 10.000000 
Rope3_Seg05 0.000000 0.000000 0.000000 0.000000 0.000000 0.000000 10.000000 
Rope3_Seg06 0.000000 0.000000 0.000000 0.000000 0.000000 0.000000 10.000000 
Rope3_Seg07 0.000000 0.000000 0.000000 0.000000 0.000000 0.000000 10.000000 
Rope3_Seg08 0.000000 0.000000 0.000000 0.000000 0.000000 0.000000 10.000000 
Rope3_Seg09 0.000000 0.000000 0.000000 0.000000 0.000000 0.000000 10.000000 
R_rear_hand01 0.000000 0.000000 0.000000 0.000000 0.000000 0.000000 10.000000 
R_rear_hand02 0.000000 0.000000 0.000000 0.000000 0.000000 0.000000 10.000000 
R_rear_hand03 0.000000 0.000000 0.000000 0.000000 0.000000 0.000000 10.000000 
Rope4_Seg01 0.000000 0.000000 0.000000 0.000000 0.000000 0.000000 10.000000 
Rope4_Seg02 0.000000 0.000000 0.000000 0.000000 0.000000 0.000000 10.000000 
Rope4_Seg03 0.000000 0.000000 0.000000 0.000000 0.000000 0.000000 10.000000 
Rope4_Seg04 0.000000 0.000000 0.000000 0.000000 0.000000 0.000000 10.000000 
Rope4_Seg05 0.000000 0.000000 0.000000 0.000000 0.000000 0.000000 10.000000 
Rope4_Seg06 0.000000 0.000000 0.000000 0.000000 0.000000 0.000000 10.000000 
Rope4_Seg07 0.000000 0.000000 0.000000 0.000000 0.000000 0.000000 10.000000 
Rope4_Seg08 0.000000 0.000000 0.000000 0.000000 0.000000 0.000000 10.000000 
Rope4_Seg09 0.000000 0.000000 0.000000 0.000000 0.000000 0.000000 10.000000 
L_rear_hand01 0.000000 0.000000 0.000000 0.000000 0.000000 0.000000 10.000000 
L_rear_hand02 0.000000 0.000000 0.000000 0.000000 0.000000 0.000000 10.000000 
L_rear_hand03 0.000000 0.000000 0.000000 0.000000 0.000000 0.000000 10.000000 
#Beginning of Data. Separated by tabs
#Fr	Tx	Ty	Tz	Rx	Ry	Rz	SF
[MASTER]
13 0.000000 0.000000 0.000000 0.001660 0.001660 0.001660 0.000000
14 0.000000 0.000000 0.000000 0.001660 0.001660 0.001660 0.000000
[root]
13 -2.643958 -15.992776 1464.415039 -91.740158 13.400834 -90.225014 1464.504761
14 -3.735129 -15.507085 1460.059937 -91.740158 13.400836 -90.225014 1460.146973
[chest]
13 -84.512650 -34.090519 0.000000 -2.117274 0.462005 -179.268204 91.129311
14 -84.512650 -34.090519 0.000000 -2.117274 0.462005 -179.268204 91.129311
[L_mid_tent01]
13 27.299511 22.177458 -249.918259 -10.894012 27.237215 45.258865 252.381134
14 27.299511 22.177458 -249.918259 -10.728480 28.021814 45.624805 252.381134
[R_mid_tent01]
13 23.228794 24.509907 226.238495 -174.804703 -23.244381 48.849754 228.744751
14 23.228794 24.509907 226.238495 -174.883835 -25.034683 49.154980 228.744751
[spine01]
13 -0.361383 -0.195265 0.000000 -0.000001 -0.000007 22.052340 0.410763
14 -0.361383 -0.195265 0.000000 -0.000001 -0.000007 22.052340 0.410763
[Bip01_Neck]
13 165.484543 71.581718 0.000119 175.896118 1.177290 24.871183 180.302734
14 165.484543 71.581718 0.000119 175.896118 1.177290 24.871183 180.302734
[L_humerus]
13 -13.983130 -135.272980 -120.471481 175.474304 58.687801 -118.474754 181.680161
14 -13.983130 -135.272980 -120.471481 175.474304 58.687801 -118.474754 181.680161
[R_humerus]
13 -13.983309 -135.273102 125.287651 174.588181 -51.786880 -99.934280 184.909012
14 -13.983309 -135.273102 125.287651 174.588181 -51.786880 -99.934280 184.909012
[weapon_bone]
13 235.964890 -300.705902 0.000000 0.000000 -89.951546 -128.212341 382.234833
14 235.964890 -300.705902 0.000000 0.000000 -89.951546 -128.212341 382.234833
[Bip01_Head]
13 163.817291 272.852325 22.822264 1.693472 4.424703 -42.711666 319.069519
14 163.817291 272.852325 22.822264 1.693472 4.424703 -42.711670 319.069519
[eye_left_bone]
13 -24.626970 125.451866 -64.772606 0.000000 -90.000000 -99.840431 143.318359
14 -24.626970 125.451866 -64.772606 0.000000 -90.000000 -99.840431 143.318359
[eye_right_bone]
13 -24.626970 125.451866 64.327362 0.000000 -89.965736 80.156380 143.117676
14 -24.626970 125.451866 64.327362 0.000000 -89.965736 80.156380 143.117676
[L_forearm]
13 322.776093 0.000000 -0.000119 0.000442 -0.002305 -111.718391 322.776093
14 322.776093 0.000000 -0.000119 0.000442 -0.002305 -111.718391 322.776093
[L_front_hand]
13 241.149185 -0.042021 -3.300071 -179.659958 -2.242151 -0.019832 241.171753
14 241.149185 -0.042021 -3.300071 -179.659958 -2.242151 -0.019832 241.171753
[L_weapon_bone]
13 156.183838 0.000000 0.000000 0.000014 0.000007 0.000001 156.183838
14 156.183838 0.000000 0.000000 0.000014 0.000007 0.000001 156.183838
[L_front_hand01_01]
13 86.095154 20.947098 -0.655860 -0.366594 -0.477154 75.385574 88.609184
14 86.095154 20.947098 -0.655860 -0.366594 -0.477154 75.385574 88.609184
[L_front_hand02_01]
13 86.935165 -11.437475 24.513514 154.399796 -59.883835 -61.369587 91.046425
14 86.935165 -11.437475 24.513514 154.399796 -59.883835 -61.369587 91.046425
[L_front_hand03_01]
13 86.637497 -14.123976 -20.424902 -153.913849 58.118122 -62.702866 90.126129
14 86.637497 -14.123976 -20.424902 -153.913849 58.118130 -62.702866 90.126129
[L_front_hand01_02]
13 71.020905 -0.000179 0.000030 0.000334 -0.002323 -106.379684 71.020905
14 71.020905 -0.000179 0.000030 0.000334 -0.002323 -106.379684 71.020905
[L_front_hand02_02]
13 71.020927 -0.000119 0.000060 0.000334 -0.002323 -106.379684 71.020927
14 71.020927 -0.000119 0.000060 0.000334 -0.002323 -106.379684 71.020927
[L_front_hand03_02]
13 71.020905 -0.000060 0.000060 0.000334 -0.002323 -106.379684 71.020905
14 71.020905 -0.000060 0.000060 0.000334 -0.002323 -106.379684 71.020905
[R_forearm]
13 322.776428 -0.000060 0.000030 0.211305 0.032976 -99.623016 322.776428
14 322.776428 -0.000060 0.000030 0.211305 0.032976 -99.623016 322.776428
[R_front_hand]
13 238.847015 -0.006795 2.210259 -0.270529 1.703932 2.322530 238.857239
14 238.847015 -0.006795 2.210259 -0.270529 1.703932 2.322530 238.857239
[R_weapon_bone]
13 155.664093 0.002503 -0.000030 0.003487 0.001180 -90.988930 155.664078
14 155.664093 0.002503 -0.000030 0.003487 0.001180 -90.988930 155.664078
[R_front_hand01_01]
13 87.624611 14.231146 22.918642 -154.633499 -59.950619 61.746044 91.683487
14 87.624611 14.231146 22.918642 -154.633484 -59.950619 61.746037 91.683487
[R_front_hand02_01]
13 89.356956 14.367283 -19.491137 154.602661 58.302849 63.744389 92.579636
14 89.356956 14.367283 -19.491137 154.602661 58.302849 63.744389 92.579636
[R_front_hand03_01]
13 87.286232 -22.307278 -0.143439 0.162155 -0.423168 -75.767921 90.091743
14 87.286232 -22.307278 -0.143439 0.162155 -0.423168 -75.767906 90.091743
[R_front_hand01_02]
13 71.020905 0.000060 0.000119 0.002323 -0.000334 106.381714 71.020905
14 71.020905 0.000060 0.000119 0.002323 -0.000334 106.381714 71.020905
[R_front_hand02_02]
13 71.020844 -0.000030 -0.000119 0.002323 -0.000334 106.381714 71.020836
14 71.020844 -0.000030 -0.000119 0.002323 -0.000334 106.381714 71.020836
[R_front_hand03_02]
13 71.020905 0.000000 0.000030 0.002323 -0.000334 106.381714 71.020905
14 71.020905 0.000000 0.000030 0.002323 -0.000334 106.381714 71.020905
[null_rope01_connect]
13 328.732483 0.000000 -0.000238 -172.193146 -59.168072 -159.008301 328.732483
14 328.732483 0.000000 -0.000238 -171.723999 -58.508358 -159.872665 328.732483
[Rope1_Seg01]
13 0.000000 0.000000 0.000000 -108.574570 58.497936 -105.511101 0.000000
14 0.000000 0.000000 0.000000 -113.008621 57.957851 -108.546761 0.000000
[Rope1_Seg02]
13 139.999863 -0.000179 0.000000 25.585808 -12.503294 -13.087873 139.999863
14 139.999863 -0.000179 0.000000 27.078592 -12.324302 -13.579796 139.999863
[Rope1_Seg03]
13 139.999924 0.000060 -0.000060 14.072199 -12.433661 -4.862470 139.999924
14 139.999924 0.000060 -0.000060 15.030351 -12.679434 -5.085948 139.999924
[Rope1_Seg04]
13 139.999924 -0.000060 -0.000119 8.980430 -12.870200 -1.462559 139.999924
14 139.999924 -0.000060 -0.000119 9.615561 -13.119677 -1.681122 139.999924
[Rope1_Seg05]
13 139.999832 0.000119 -0.000060 1.050055 -1.801225 -0.089048 139.999832
14 139.999832 0.000119 -0.000060 1.157238 -2.141104 0.103702 139.999832
[Rope1_Seg06]
13 139.999954 0.000119 -0.000060 -3.422442 6.249015 -0.834355 139.999954
14 139.999954 0.000119 -0.000060 -3.365381 5.700505 -0.284832 139.999954
[Rope1_Seg07]
13 139.999985 0.000060 0.000000 -17.722240 20.072863 -1.167309 139.999985
14 139.999985 0.000060 0.000000 -15.670798 18.154768 0.111180 139.999985
[Rope1_Seg09]
13 121.602913 0.000119 -0.000089 -89.793175 -1.359789 0.847147 121.602913
14 121.602913 0.000119 -0.000089 -89.793175 -1.359789 0.847147 121.602913
[L_mid_hand01]
13 103.859421 1.038730 8.195221 106.855484 -31.239275 -9.461397 104.187431
14 103.859421 1.038730 8.195221 106.855484 -31.239275 -9.461397 104.187431
[L_mid_hand02]
13 105.572853 -4.139662 -10.864139 -142.331345 25.752670 -28.774628 106.211075
14 105.572853 -4.139662 -10.864139 -142.331345 25.752670 -28.774628 106.211075
[L_mid_hand03]
13 104.641464 17.579376 -3.913581 -16.122810 9.734291 34.223598 106.179977
14 104.641464 17.579376 -3.913581 -16.122810 9.734291 34.223598 106.179977
[null_rope02_connect]
13 328.732849 0.000179 -0.000119 -163.767426 67.793121 -10.310001 328.732849
14 328.732849 0.000179 -0.000119 -163.104965 66.057762 -9.268576 328.732849
[Rope2_Seg01]
13 0.000000 0.000000 0.000000 165.909195 49.268372 -64.811752 0.000000
14 0.000000 0.000000 0.000000 168.917221 49.603485 -62.997498 0.000000
[Rope2_Seg02]
13 139.999741 -0.000060 -0.000119 -15.518895 -4.382635 18.296700 139.999756
14 139.999741 -0.000060 -0.000119 -16.304459 -2.985429 17.990540 139.999756
[Rope2_Seg03]
13 140.000107 0.000030 0.000000 -12.731583 -13.108423 27.560198 140.000107
14 140.000107 0.000030 0.000000 -13.716381 -11.298413 27.642170 140.000107
[Rope2_Seg04]
13 139.999802 0.000000 -0.000060 -0.674935 -4.600900 4.509448 139.999802
14 139.999802 0.000000 -0.000060 -1.362985 -6.250360 7.079600 139.999802
[Rope2_Seg05]
13 139.999985 -0.000060 0.000119 3.565940 13.385633 -23.807930 139.999985
14 139.999985 -0.000060 0.000119 3.545105 10.247282 -21.334827 139.999985
[Rope2_Seg06]
13 139.999893 -0.000030 -0.000119 6.238031 5.130673 -12.072973 139.999893
14 139.999893 -0.000030 -0.000119 5.061849 3.921169 -11.097254 139.999893
[Rope2_Seg07]
13 139.999893 0.000060 -0.000060 4.896023 1.909461 -6.688502 139.999893
14 139.999893 0.000060 -0.000060 3.836723 1.457985 -6.188144 139.999893
[Rope2_Seg09]
13 121.338966 0.000089 -0.000060 33.793236 -1.359788 -0.847141 121.338966
14 121.338966 0.000089 -0.000060 33.793236 -1.359788 -0.847141 121.338966
[R_mid_hand01]
13 104.680779 11.144459 -10.335981 -41.523792 25.424656 28.595957 105.778534
14 104.680779 11.144459 -10.335981 -41.523792 25.424656 28.595957 105.778534
[R_mid_hand02]
13 104.070427 2.443552 8.231699 72.847389 -32.746803 10.013901 104.424065
14 104.070427 2.443552 8.231699 72.847389 -32.746803 10.013901 104.424065
[R_mid_hand03]
13 106.028137 -11.221827 -5.996406 -167.901306 10.259192 -37.009720 106.788818
14 106.028137 -11.221827 -5.996406 -167.901306 10.259192 -37.009720 106.788818
[spine02]
13 129.756927 0.001550 0.000119 0.360061 -4.044797 -12.915058 129.756927
14 129.756927 0.001550 0.000119 0.360061 -4.044797 -12.915058 129.756927
[spine03]
13 78.613846 0.087372 -4.898873 1.896495 3.831288 16.473045 78.766380
14 78.613846 0.087372 -4.898873 1.896495 3.831288 16.473045 78.766380
[pelvis]
13 169.435242 0.051022 0.000000 -0.060465 -0.180225 14.087930 169.435257
14 169.435242 0.051022 0.000000 -0.060465 -0.180225 14.087930 169.435257
[null_rope03_connect]
13 -1.257226 -2.466202 137.391083 -159.503860 -89.311867 -163.586563 137.418976
14 -1.257226 -2.466202 137.391083 -159.503860 -89.311867 -163.586563 137.418976
[null_rope04_connect]
13 -1.259640 -2.480268 -137.844437 -159.503860 -89.311867 -163.586563 137.872513
14 -1.259640 -2.480268 -137.844437 -159.503860 -89.311867 -163.586563 137.872513
[Rope3_Seg01]
13 0.000000 0.000000 0.000000 -136.794876 32.618607 -85.099258 0.000000
14 0.000000 0.000000 0.000000 -138.460114 33.307152 -88.006302 0.000000
[Rope3_Seg02]
13 139.999924 -0.000119 0.000060 1.250467 4.045027 -2.765525 139.999924
14 139.999924 -0.000119 0.000060 1.370301 3.229327 -3.780275 139.999924
[Rope3_Seg03]
13 139.999924 -0.000119 0.000119 1.700375 5.803421 -4.816691 139.999924
14 139.999924 -0.000119 0.000119 1.642193 4.466031 -6.228851 139.999924
[Rope3_Seg04]
13 139.999924 0.000119 0.000000 1.681056 10.856410 -14.881615 139.999924
14 139.999924 0.000119 0.000000 0.903440 7.417459 -17.829947 139.999924
[Rope3_Seg05]
13 139.999924 -0.000238 0.000060 -1.609487 2.285404 17.446293 139.999924
14 139.999924 -0.000238 0.000060 -0.249491 4.457306 17.211462 139.999924
[Rope3_Seg06]
13 139.999893 -0.000119 -0.000060 -5.729812 -1.603227 15.990419 139.999893
14 139.999893 -0.000119 -0.000060 -4.274459 0.989089 17.985157 139.999893
[Rope3_Seg07]
13 139.999771 0.000060 -0.000119 -2.517131 -0.506798 6.164786 139.999771
14 139.999771 0.000060 -0.000119 -2.073185 0.521038 6.787829 139.999771
[Rope3_Seg08]
13 139.999985 -0.000060 0.000000 -1.485891 -0.433702 3.440418 139.999985
14 139.999985 -0.000060 0.000000 -1.270020 0.152436 3.779392 139.999985
[Rope3_Seg09]
13 90.185997 -0.000179 -0.000060 89.793228 -1.359877 -0.847183 90.185997
14 90.185997 -0.000179 -0.000060 89.793228 -1.359877 -0.847183 90.185997
[R_rear_hand01]
13 103.366196 -6.073594 -10.757982 -161.551193 16.666374 -30.088671 104.101845
14 103.366196 -6.073594 -10.757982 -161.551193 16.666374 -30.088671 104.101845
[R_rear_hand02]
13 100.509819 12.039542 -7.992327 -34.280552 19.289745 28.875523 101.543350
14 100.509819 12.039542 -7.992327 -34.280552 19.289745 28.875523 101.543350
[R_rear_hand03]
13 101.539970 5.215704 5.435467 83.366440 -30.933914 7.284830 101.819031
14 101.539970 5.215704 5.435467 83.366440 -30.933914 7.284830 101.819031
[Rope4_Seg01]
13 0.000010 0.000038 -0.000114 52.317616 23.214718 -89.702675 0.000121
14 0.000010 0.000038 -0.000114 51.081837 22.624788 -92.864990 0.000121
[Rope4_Seg02]
13 139.999985 0.000060 0.000119 1.612207 2.791334 -4.408106 139.999985
14 139.999985 0.000060 0.000119 1.314271 4.433035 -3.185009 139.999985
[Rope4_Seg03]
13 139.999924 0.000000 -0.000238 1.905268 3.789125 -4.737312 139.999924
14 139.999924 0.000000 -0.000238 1.824563 5.812004 -3.323568 139.999924
[Rope4_Seg04]
13 139.999985 0.000000 0.000119 3.087419 7.952473 -5.668120 139.999985
14 139.999985 0.000000 0.000119 3.494390 10.702929 -3.518112 139.999985
[Rope4_Seg05]
13 139.999802 -0.000060 -0.000119 -0.082803 -7.827970 -2.823550 139.999802
14 139.999802 -0.000060 -0.000119 0.012390 -8.317730 -3.421280 139.999802
[Rope4_Seg06]
13 139.999924 0.000000 0.000060 -0.832423 -13.936126 -0.105859 139.999924
14 139.999924 0.000000 0.000060 -0.717232 -15.805770 -2.016000 139.999924
[Rope4_Seg07]
13 139.999802 0.000000 0.000000 0.195552 -6.202011 -0.836078 139.999802
14 139.999802 0.000000 0.000000 0.202789 -6.691518 -1.575748 139.999802
[Rope4_Seg08]
13 139.999924 0.000000 0.000119 -1.327186 -3.665247 -0.534856 139.999924
14 139.999924 0.000000 0.000119 -1.346552 -3.912834 -0.952035 139.999924
[Rope4_Seg09]
13 90.185791 0.000060 0.000060 -135.617828 2.228885 0.850567 90.185791
14 90.185791 0.000060 0.000060 -135.617828 2.228885 0.850567 90.185791
[L_rear_hand01]
13 101.696655 -8.392275 -7.654577 -34.454281 -18.946800 151.655121 102.329041
14 101.696655 -8.392275 -7.654577 -34.454281 -18.946800 151.655121 102.329041
[L_rear_hand02]
13 102.726799 -1.568258 5.773216 83.407906 30.330435 172.796509 102.900848
14 102.726799 -1.568258 5.773216 83.407906 30.330435 172.796509 102.900848
[L_rear_hand03]
13 104.552910 9.721220 -10.420293 -161.379868 -16.473232 -150.512238 105.519653
14 104.552910 9.721220 -10.420293 -161.379868 -16.473232 -150.512238 105.519653
